<svg height="1518" width="720" xmlns="http://www.w3.org/2000/svg">
<rect height="1518" fill="#555" width="720"></rect>
<text fill="#7f7" font-family="Courier New" font-size="12" xml:space="preserve">
<tspan x="10" y="26">2018-04-21 20:41:09 +0800</tspan>

<tspan x="10" y="42">fix.build</tspan>

<tspan x="10" y="58"></tspan>

<tspan x="10" y="74">2018-04-21 20:37:37 +0800</tspan>

<tspan x="10" y="90">- npm publish v2018.4.21</tspan>

<tspan x="10" y="106">- update build</tspan>

<tspan x="10" y="122"></tspan>

<tspan x="10" y="138">2018-04-13 20:23:24 +0800</tspan>

<tspan x="10" y="154">update.build</tspan>

<tspan x="10" y="170"></tspan>

<tspan x="10" y="186">2018-03-29 19:37:27 +0900</tspan>

<tspan x="10" y="202">update.build</tspan>

<tspan x="10" y="218"></tspan>

<tspan x="10" y="234">2018-03-29 16:48:57 +0900</tspan>

<tspan x="10" y="250">update.build</tspan>

<tspan x="10" y="266"></tspan>

<tspan x="10" y="282">2018-03-26 22:45:46 +0900</tspan>

<tspan x="10" y="298">update</tspan>

<tspan x="10" y="314"></tspan>

<tspan x="10" y="330">2018-02-19 16:41:28 +0700</tspan>

<tspan x="10" y="346">update.build</tspan>

<tspan x="10" y="362"></tspan>

<tspan x="10" y="378">2018-02-17 07:54:57 +0700</tspan>

<tspan x="10" y="394">update.build</tspan>

<tspan x="10" y="410"></tspan>

<tspan x="10" y="426">2018-02-15 22:31:07 +0700</tspan>

<tspan x="10" y="442">update</tspan>

<tspan x="10" y="458"></tspan>

<tspan x="10" y="474">2018-02-15 09:09:02 +0700</tspan>

<tspan x="10" y="490">update.build</tspan>

<tspan x="10" y="506"></tspan>

<tspan x="10" y="522">2018-01-22 22:40:42 +0700</tspan>

<tspan x="10" y="538">update</tspan>

<tspan x="10" y="554"></tspan>

<tspan x="10" y="570">2018-01-22 22:16:03 +0700</tspan>

<tspan x="10" y="586">update</tspan>

<tspan x="10" y="602"></tspan>

<tspan x="10" y="618">2018-01-16 10:02:55 +0700</tspan>

<tspan x="10" y="634">[build clean]</tspan>

<tspan x="10" y="650"></tspan>

<tspan x="10" y="666">2018-01-16 08:27:55 +0700</tspan>

<tspan x="10" y="682">[npm publish] - npm publish 2018.1.15</tspan>

<tspan x="10" y="698">- auto-sync master swagger.json from ../swgg-$npm_package_swggAll/assets.swgg.swagger.json</tspan>

<tspan x="10" y="714">- disable heroku test-server</tspan>

<tspan x="10" y="730"></tspan>

<tspan x="10" y="746">2017-11-21 15:34:35 +0800</tspan>

<tspan x="10" y="762">[npm publish] - npm publish 2017.11.21</tspan>

<tspan x="10" y="778">- update swgg-client</tspan>

<tspan x="10" y="794"></tspan>

<tspan x="10" y="810">2017-11-18 10:22:07 +0800</tspan>

<tspan x="10" y="826">[npm publish] - npm publish 2017.11.17</tspan>

<tspan x="10" y="842">- add dynamic input validation</tspan>

<tspan x="10" y="858"></tspan>

<tspan x="10" y="874">2017-10-29 22:29:18 +0800</tspan>

<tspan x="10" y="890">[npm publish] - npm publish 2017.10.28</tspan>

<tspan x="10" y="906">- remove unused browser-code when building README.md</tspan>

<tspan x="10" y="922">- update docs</tspan>

<tspan x="10" y="938"></tspan>

<tspan x="10" y="954">2017-10-23 05:27:50 +0800</tspan>

<tspan x="10" y="970">[npm publish] - npm publish 2017.10.22</tspan>

<tspan x="10" y="986">- rename package-name google-maps-lite -&gt; swgg-google-maps</tspan>

<tspan x="10" y="1002">- add api GET /maps/api/place/autocomplete/json</tspan>

<tspan x="10" y="1018">- add api GET /maps/api/place/details/json</tspan>

<tspan x="10" y="1034">- add api GET /maps/api/place/nearbysearch/json</tspan>

<tspan x="10" y="1050">- add api GET /maps/api/place/photo</tspan>

<tspan x="10" y="1066">- add api GET /maps/api/place/queryautocomplete/json</tspan>

<tspan x="10" y="1082">- add api GET /maps/api/place/textsearch/json</tspan>

<tspan x="10" y="1098">- add api GET /v1/nearestRoads</tspan>

<tspan x="10" y="1114">- add api GET /v1/snapToRoads</tspan>

<tspan x="10" y="1130">- add api GET /v1/speedLimits</tspan>

<tspan x="10" y="1146">- swgg - add feature $SWGG_TAGS0_FILTER to filter x-tags0</tspan>

<tspan x="10" y="1162"></tspan>

<tspan x="10" y="1178">2017-10-12 20:08:17 +0800</tspan>

<tspan x="10" y="1194">[npm publish] - npm publish 2017.10.12</tspan>

<tspan x="10" y="1210">- add api POST /geolocation/v1/geolocate</tspan>

<tspan x="10" y="1226">- add api GET /maps/api/distancematrix/json</tspan>

<tspan x="10" y="1242">- add api GET /maps/api/elevation/json</tspan>

<tspan x="10" y="1258">- add api GET /maps/api/timezone</tspan>

<tspan x="10" y="1274">- README.md - include assets.swgg.swagger.json in cdn-download section</tspan>

<tspan x="10" y="1290"></tspan>

<tspan x="10" y="1306">2017-10-06 00:36:24 +0800</tspan>

<tspan x="10" y="1322">[npm publish] - npm publish 2017.10.2</tspan>

<tspan x="10" y="1338">- add file assets.utility2.rollup.js</tspan>

<tspan x="10" y="1354">- apidoc - document swgg.apiDict</tspan>

<tspan x="10" y="1370">- flesh out working example.js demo</tspan>

<tspan x="10" y="1386">- persist api-key to localStorage</tspan>

<tspan x="10" y="1402"></tspan>

<tspan x="10" y="1418">2017-10-04 16:57:45 +0800</tspan>

<tspan x="10" y="1434">[npm publish] - npm publish 2017.10.1</tspan>

<tspan x="10" y="1450">- create initial working swaggerdoc with /maps/api/directions and /maps/api/geocode apis</tspan>

<tspan x="10" y="1466"></tspan>

<tspan x="10" y="1482">2014-03-26 02:31:50 +0700</tspan>

<tspan x="10" y="1498">add blank README.md</tspan>

</text>
</svg>
